<svg xmlns="http://www.w3.org/2000/svg" viewBox="0 0 128 128">
  <defs>
    <linearGradient id="g" x1="0" x2="1" y1="0" y2="1">
      <stop offset="0%" stop-color="#512bd4"/>
      <stop offset="100%" stop-color="#34d399"/>
    </linearGradient>
  </defs>
  <rect width="128" height="128" rx="24" fill="url(#g)"/>
  <path d="M40 36h48a4 4 0 0 1 4 4v16H44a4 4 0 0 0-4 4v40a4 4 0 0 0 4 4h40v16a4 4 0 0 1-4 4H40a4 4 0 0 1-4-4V40a4 4 0 0 1 4-4z" fill="#fff" opacity="0.12"/>
  <path d="M46 40h36v48H46z" fill="#fff" opacity="0.18"/>
  <path d="M50 66h28v6H50z" fill="#fff"/>
  <path d="M50 76h28v6H50z" fill="#fff"/>
  <path d="M50 86h28v6H50z" fill="#fff"/>
  <path d="M42 42h44v44H42z" fill="none" stroke="#fff" stroke-width="6" stroke-linejoin="round"/>
</svg>
